<svg width="50" height="50" viewBox="0 0 50 50" fill="none" xmlns="http://www.w3.org/2000/svg">
<path d="M11.0815 30.2174L9.34097 36.7149L2.9795 36.8495C1.07836 33.3233 0 29.2889 0 25.0016C0 20.8558 1.00824 16.9463 2.79541 13.5039H2.79678L8.46027 14.5422L10.9412 20.1717C10.422 21.6856 10.1389 23.3106 10.1389 25.0016C10.1391 26.8368 10.4716 28.5952 11.0815 30.2174Z" fill="#FBBB00"/>
<path d="M49.5633 20.3311C49.8504 21.8434 50.0001 23.4053 50.0001 25.0015C50.0001 26.7914 49.8119 28.5374 49.4534 30.2215C48.2364 35.9525 45.0563 40.9568 40.6509 44.4981L40.6496 44.4968L33.5161 44.1328L32.5065 37.8303C35.4297 36.116 37.7141 33.4332 38.9175 30.2215H25.5488V20.3311H39.1125H49.5633Z" fill="#518EF8"/>
<path d="M40.6531 44.4956L40.6545 44.497C36.3701 47.9408 30.9275 50.0013 25.0028 50.0013C15.4819 50.0013 7.20416 44.6797 2.98145 36.8484L11.0834 30.2163C13.1947 35.8511 18.6304 39.8623 25.0028 39.8623C27.7419 39.8623 30.308 39.1218 32.51 37.8292L40.6531 44.4956Z" fill="#28B446"/>
<path d="M40.9565 5.75568L32.8572 12.3864C30.5784 10.9619 27.8845 10.139 24.9985 10.139C18.4817 10.139 12.9444 14.3342 10.9389 20.171L2.79434 13.5032H2.79297C6.95386 5.48096 15.336 0 24.9985 0C31.0646 0 36.6266 2.16082 40.9565 5.75568Z" fill="#F14336"/>
</svg>
