<svg width="50" height="50" viewBox="0 0 50 50" fill="none" xmlns="http://www.w3.org/2000/svg">
<path d="M24.9906 1.75781C11.1904 1.75781 0 10.636 0 21.592C0 28.6756 4.67518 34.8809 11.7161 38.4039L9.18137 47.5181C9.18137 47.5181 9.13443 47.9432 9.40668 48.1037C9.67893 48.2643 10.0075 48.1415 10.0075 48.1415C10.7961 48.0282 19.1138 42.144 20.5689 41.124C22.0053 41.3318 23.4979 41.4356 25.0094 41.4356C38.8096 41.4356 50 32.5575 50 21.6015C50 10.6454 38.7908 1.75781 24.9906 1.75781Z" fill="black"/>
<path d="M11.1715 28.5053C10.3735 28.5053 9.72574 27.882 9.72574 27.1169V18.4938H7.47264C6.69344 18.4938 6.06445 17.861 6.06445 17.0771C6.06445 16.2931 6.70283 15.6603 7.47264 15.6603H14.8609C15.6401 15.6603 16.2691 16.2931 16.2691 17.0771C16.2691 17.861 15.6307 18.4938 14.8609 18.4938H12.6078V27.1169C12.6078 27.8725 11.9507 28.5053 11.1621 28.5053H11.1715ZM23.817 28.4864C23.2162 28.4864 22.7562 28.2409 22.6153 27.8442L21.9019 25.9552H17.5083L16.7948 27.8442C16.654 28.2409 16.194 28.4864 15.5932 28.4864C15.274 28.4864 14.9642 28.4203 14.6732 28.2975C14.2789 28.1086 13.894 27.6081 14.3352 26.2386L17.7806 17.1054C18.0246 16.4065 18.7663 15.6887 19.7051 15.6698C20.6439 15.6509 21.3949 16.4065 21.6296 17.1054L25.075 26.2386C25.5162 27.6081 25.1313 28.1275 24.737 28.2975C24.4554 28.4298 24.1362 28.4864 23.817 28.4864ZM21.1414 23.3862L19.7051 19.2683L18.2687 23.3862H21.1414ZM27.3938 28.2975C26.6427 28.2975 26.0138 27.7025 26.0138 26.9753V17.1054C26.0138 16.3026 26.6709 15.6509 27.4877 15.6509C28.3044 15.6509 28.9616 16.312 28.9616 17.1054V25.6246H32.022C32.7731 25.6246 33.402 26.2197 33.402 26.9469C33.402 27.6742 32.7824 28.2692 32.022 28.2692L27.3938 28.2975ZM33.9559 27.0319V17.1148C33.9559 16.312 34.6131 15.6603 35.4017 15.6603C36.1903 15.6603 36.8474 16.3215 36.8474 17.1148V20.2316L40.8842 16.1703C41.3286 15.7233 42.1686 15.7625 42.6773 16.2742C43.1551 16.755 43.2794 17.5675 42.7806 18.0782L39.476 21.3839L43.0246 26.1063C43.5015 26.7204 43.3858 27.6768 42.743 28.1275C42.1093 28.5998 41.1784 28.4424 40.7246 27.8442L37.345 23.339L36.8474 23.8396V27.0036C36.8474 28.8882 33.9559 28.9608 33.9559 27.0319Z" fill="#FFE812"/>
</svg>
