<svg width="39" height="39" viewBox="0 0 39 39" fill="none" xmlns="http://www.w3.org/2000/svg">
<rect width="39" height="39" fill="white"/>
<path fill-rule="evenodd" clip-rule="evenodd" d="M22.224 7.01394C21.5293 4.16202 17.4707 4.16202 16.776 7.01394C16.6723 7.44249 16.4689 7.84049 16.1823 8.17557C15.8957 8.51064 15.534 8.77332 15.1267 8.94222C14.7194 9.11112 14.278 9.18148 13.8384 9.14756C13.3988 9.11364 12.9733 8.97641 12.5968 8.74703C10.0885 7.21869 7.21827 10.0889 8.74663 12.5971C9.73385 14.2169 8.85815 16.3302 7.01534 16.7781C4.16155 17.471 4.16155 21.5313 7.01534 22.2223C7.44401 22.3262 7.84209 22.5298 8.17717 22.8166C8.51225 23.1034 8.77486 23.4653 8.9436 23.8728C9.11234 24.2804 9.18246 24.722 9.14823 25.1617C9.114 25.6014 8.9764 26.0268 8.74663 26.4033C7.21827 28.9116 10.0885 31.7818 12.5968 30.2534C12.9733 30.0237 13.3987 29.8861 13.8385 29.8518C14.2782 29.8176 14.7198 29.8877 15.1273 30.0565C15.5348 30.2252 15.8967 30.4878 16.1835 30.8229C16.4704 31.158 16.674 31.556 16.7778 31.9847C17.4707 34.8384 21.5311 34.8384 22.2222 31.9847C22.3264 31.5563 22.5302 31.1584 22.8171 30.8236C23.1039 30.4888 23.4658 30.2263 23.8732 30.0576C24.2806 29.8889 24.722 29.8188 25.1616 29.8528C25.6012 29.8868 26.0266 30.0241 26.4032 30.2534C28.9115 31.7818 31.7817 28.9116 30.2534 26.4033C30.024 26.0268 29.8867 25.6014 29.8527 25.1618C29.8187 24.7221 29.8889 24.2807 30.0576 23.8733C30.2263 23.4659 30.4887 23.1041 30.8236 22.8172C31.1584 22.5304 31.5562 22.3265 31.9847 22.2223C34.8384 21.5295 34.8384 17.4691 31.9847 16.7781C31.556 16.6743 31.1579 16.4706 30.8228 16.1838C30.4877 15.897 30.2251 15.5351 30.0564 15.1276C29.8877 14.7201 29.8175 14.2785 29.8518 13.8388C29.886 13.399 30.0236 12.9736 30.2534 12.5971C31.7817 10.0889 28.9115 7.21869 26.4032 8.74703C26.0267 8.97679 25.6013 9.11439 25.1615 9.14862C24.7218 9.18285 24.2802 9.11273 23.8727 8.94399C23.4652 8.77525 23.1033 8.51265 22.8165 8.17758C22.5296 7.84251 22.326 7.44443 22.2222 7.01577L22.224 7.01394Z" fill="black"/>
<path d="M22.75 19.5C22.75 21.2949 21.2949 22.75 19.5 22.75C17.7051 22.75 16.25 21.2949 16.25 19.5C16.25 17.7051 17.7051 16.25 19.5 16.25C21.2949 16.25 22.75 17.7051 22.75 19.5Z" fill="black"/>
<path fill-rule="evenodd" clip-rule="evenodd" d="M22.224 7.01394C21.5293 4.16202 17.4707 4.16202 16.776 7.01394C16.6723 7.44249 16.4689 7.84049 16.1823 8.17557C15.8957 8.51064 15.534 8.77332 15.1267 8.94222C14.7194 9.11112 14.278 9.18148 13.8384 9.14756C13.3988 9.11364 12.9733 8.97641 12.5968 8.74703C10.0885 7.21869 7.21827 10.0889 8.74663 12.5971C9.73385 14.2169 8.85815 16.3302 7.01534 16.7781C4.16155 17.471 4.16155 21.5313 7.01534 22.2223C7.44401 22.3262 7.84209 22.5298 8.17717 22.8166C8.51225 23.1034 8.77486 23.4653 8.9436 23.8728C9.11234 24.2804 9.18246 24.722 9.14823 25.1617C9.114 25.6014 8.9764 26.0268 8.74663 26.4033C7.21827 28.9116 10.0885 31.7818 12.5968 30.2534C12.9733 30.0237 13.3987 29.8861 13.8385 29.8518C14.2782 29.8176 14.7198 29.8877 15.1273 30.0565C15.5348 30.2252 15.8967 30.4878 16.1835 30.8229C16.4704 31.158 16.674 31.556 16.7778 31.9847C17.4707 34.8384 21.5311 34.8384 22.2222 31.9847C22.3264 31.5563 22.5302 31.1584 22.8171 30.8236C23.1039 30.4888 23.4658 30.2263 23.8732 30.0576C24.2806 29.8889 24.722 29.8188 25.1616 29.8528C25.6012 29.8868 26.0266 30.0241 26.4032 30.2534C28.9115 31.7818 31.7817 28.9116 30.2534 26.4033C30.024 26.0268 29.8867 25.6014 29.8527 25.1618C29.8187 24.7221 29.8889 24.2807 30.0576 23.8733C30.2263 23.4659 30.4887 23.1041 30.8236 22.8172C31.1584 22.5304 31.5562 22.3265 31.9847 22.2223C34.8384 21.5295 34.8384 17.4691 31.9847 16.7781C31.556 16.6743 31.1579 16.4706 30.8228 16.1838C30.4877 15.897 30.2251 15.5351 30.0564 15.1276C29.8877 14.7201 29.8175 14.2785 29.8518 13.8388C29.886 13.399 30.0236 12.9736 30.2534 12.5971C31.7817 10.0889 28.9115 7.21869 26.4032 8.74703C26.0267 8.97679 25.6013 9.11439 25.1615 9.14862C24.7218 9.18285 24.2802 9.11273 23.8727 8.94399C23.4652 8.77525 23.1033 8.51265 22.8165 8.17758C22.5296 7.84251 22.326 7.44443 22.2222 7.01577L22.224 7.01394Z" stroke="black" stroke-width="2"/>
<path d="M22.75 19.5C22.75 21.2949 21.2949 22.75 19.5 22.75C17.7051 22.75 16.25 21.2949 16.25 19.5C16.25 17.7051 17.7051 16.25 19.5 16.25C21.2949 16.25 22.75 17.7051 22.75 19.5Z" stroke="black" stroke-width="2"/>
<circle cx="19.5" cy="19.5" r="4.5" fill="white"/>
</svg>
