<svg width="20" height="20" viewBox="0 0 20 20" fill="none" xmlns="http://www.w3.org/2000/svg">
<path d="M17.0313 11C17.5835 11 18.0313 10.5523 18.0313 10C18.0313 9.44772 17.5835 9 17.0313 9L17.0313 11ZM17.5 10H16.5C16.5 13.5899 13.5899 16.5 10 16.5V17.5V18.5C14.6944 18.5 18.5 14.6944 18.5 10H17.5ZM10 17.5V16.5C6.41015 16.5 3.5 13.5899 3.5 10H2.5H1.5C1.5 14.6944 5.30558 18.5 10 18.5V17.5ZM2.5 10H3.5C3.5 6.41015 6.41015 3.5 10 3.5V2.5V1.5C5.30558 1.5 1.5 5.30558 1.5 10H2.5ZM10 2.5V3.5C13.5899 3.5 16.5 6.41015 16.5 10H17.5H18.5C18.5 5.30558 14.6944 1.5 10 1.5V2.5ZM10 17.5V16.5C9.87782 16.5 9.68259 16.4476 9.41785 16.1917C9.1483 15.9311 8.85987 15.5057 8.59596 14.9025C8.06945 13.699 7.71875 11.9665 7.71875 10H6.71875H5.71875C5.71875 12.1756 6.10259 14.1931 6.76365 15.7041C7.09353 16.4581 7.51215 17.1311 8.02773 17.6296C8.54811 18.1327 9.21609 18.5 10 18.5V17.5ZM6.71875 10H7.71875C7.71875 8.0335 8.06945 6.30098 8.59596 5.09752C8.85987 4.4943 9.1483 4.06893 9.41785 3.80834C9.68259 3.55239 9.87782 3.5 10 3.5V2.5V1.5C9.21609 1.5 8.54811 1.86734 8.02773 2.37044C7.51215 2.86888 7.09353 3.54186 6.76365 4.29588C6.10259 5.80688 5.71875 7.82437 5.71875 10H6.71875ZM10 17.5V18.5C10.7839 18.5 11.4519 18.1327 11.9723 17.6296C12.4878 17.1311 12.9065 16.4581 13.2364 15.7041C13.8974 14.1931 14.2812 12.1756 14.2812 10H13.2812H12.2812C12.2812 11.9665 11.9306 13.699 11.404 14.9025C11.1401 15.5057 10.8517 15.9311 10.5821 16.1917C10.3174 16.4476 10.1222 16.5 10 16.5V17.5ZM13.2812 10H14.2812C14.2812 7.82437 13.8974 5.80688 13.2364 4.29588C12.9065 3.54186 12.4878 2.86888 11.9723 2.37044C11.4519 1.86734 10.7839 1.5 10 1.5V2.5V3.5C10.1222 3.5 10.3174 3.55239 10.5821 3.80834C10.8517 4.06893 11.1401 4.4943 11.404 5.09752C11.9306 6.30098 12.2812 8.0335 12.2812 10H13.2812ZM2.5 10L2.5 11L17.0313 11L17.0313 10L17.0313 9L2.5 9L2.5 10Z" fill="white"/>
</svg>
