<svg width="21" height="15" viewBox="0 0 21 15" fill="none" xmlns="http://www.w3.org/2000/svg">
<path d="M20 7.6123C20.4282 7.47232 20.4705 7.45864 20.4746 7.45703V7.4541C20.4742 7.45278 20.4733 7.45121 20.4727 7.44922C20.4712 7.44477 20.4684 7.43822 20.4658 7.43066C20.4606 7.41557 20.4531 7.39396 20.4434 7.36719C20.4238 7.31338 20.3954 7.23663 20.3564 7.14062C20.2782 6.94791 20.1582 6.67592 19.9922 6.35156C19.6606 5.70383 19.1394 4.84022 18.377 3.97559C16.8452 2.23843 14.3414 0.5 10.5 0.5C6.65861 0.5 4.15482 2.23843 2.62305 3.97559C1.86064 4.84022 1.33939 5.70383 1.00781 6.35156C0.841782 6.67592 0.721832 6.94791 0.643555 7.14062C0.604562 7.23663 0.576227 7.31338 0.556641 7.36719C0.546896 7.39396 0.539386 7.41557 0.53418 7.43066C0.531574 7.43822 0.528837 7.44477 0.527344 7.44922C0.526675 7.45121 0.52583 7.45278 0.525391 7.4541V7.45703C0.52948 7.45864 0.571786 7.47231 1 7.6123L0.524414 7.45703L0.47168 7.62012L0.529297 7.78223L0.530273 7.7832V7.78516C0.530754 7.78648 0.531502 7.78807 0.532227 7.79004C0.533807 7.79433 0.536328 7.80038 0.539062 7.80762C0.544529 7.82208 0.552317 7.84255 0.5625 7.86816C0.582908 7.9195 0.612945 7.99246 0.65332 8.08398C0.734309 8.26755 0.857337 8.52691 1.02734 8.83594C1.36693 9.45316 1.89785 10.2762 2.66602 11.1035C4.20873 12.7649 6.70672 14.4387 10.4922 14.498C14.2877 14.5575 16.7926 12.8785 18.3369 11.1855C19.1056 10.3428 19.6364 9.49731 19.9756 8.8623C20.1454 8.54431 20.2678 8.27717 20.3486 8.08789C20.389 7.99342 20.4191 7.91817 20.4395 7.86523C20.4496 7.83875 20.4575 7.81761 20.4629 7.80273C20.4656 7.79532 20.4682 7.78954 20.4697 7.78516C20.4705 7.78296 20.4712 7.78071 20.4717 7.7793V7.77734H20.4727L20 7.6123ZM20 7.6123L20.4727 7.77637L20.5273 7.61719L20.4756 7.45703L20 7.6123ZM10.5 1.5C7.00334 1.5 4.75675 3.06752 3.37305 4.63672C2.67784 5.42514 2.20055 6.21549 1.89746 6.80762C1.74626 7.10303 1.63891 7.34773 1.57031 7.5166C1.55733 7.54856 1.54638 7.57818 1.53613 7.60449C1.54594 7.62755 1.55623 7.65317 1.56836 7.68066C1.63889 7.84054 1.74888 8.07278 1.90332 8.35352C2.21265 8.91579 2.69769 9.66812 3.39844 10.4229C4.79403 11.9259 7.04657 13.4448 10.5078 13.499C13.9586 13.5531 16.2036 12.0398 17.5977 10.5117C18.298 9.74391 18.784 8.97065 19.0938 8.39062C19.2483 8.10122 19.358 7.86096 19.4287 7.69531C19.4424 7.66335 19.4531 7.63362 19.4639 7.60742C19.4534 7.58046 19.4431 7.5496 19.4297 7.5166C19.3611 7.34773 19.2537 7.10303 19.1025 6.80762C18.7994 6.21549 18.3222 5.42514 17.627 4.63672C16.2432 3.06752 13.9967 1.5 10.5 1.5ZM10.5 4.81348C12.054 4.81348 13.3748 5.99621 13.375 7.52734C13.375 9.05863 12.0541 10.2412 10.5 10.2412C8.94588 10.2412 7.625 9.05863 7.625 7.52734C7.62517 5.99621 8.94598 4.81348 10.5 4.81348Z" stroke="#4F4F4F"/>
</svg>
